<svg width="78" height="94" viewBox="0 0 78 94" fill="none" xmlns="http://www.w3.org/2000/svg">
<path d="M12.1315 31.816C5.68085 50.8883 12.4365 68.7121 29.0782 74.3406C45.6445 79.9436 61.8308 69.876 68.2804 50.8066C74.73 31.7373 67.9779 13.9114 51.4115 8.30838C34.7698 2.67986 18.5821 12.7437 12.1315 31.816Z" fill="black"/>
<path d="M12.1315 31.816C5.68085 50.8883 12.4365 68.7121 29.0782 74.3406C45.6445 79.9436 61.8308 69.876 68.2804 50.8066C74.73 31.7373 67.9779 13.9114 51.4115 8.30838C34.7698 2.67986 18.5821 12.7437 12.1315 31.816Z" fill="white"/>
<path d="M12.1315 31.816C5.68085 50.8883 12.4365 68.7121 29.0782 74.3406C45.6445 79.9436 61.8308 69.876 68.2804 50.8066C74.73 31.7373 67.9779 13.9114 51.4115 8.30838C34.7698 2.67986 18.5821 12.7437 12.1315 31.816Z" stroke="black" stroke-width="3"/>
<path d="M31.1057 16.586C31.463 15.624 32.2504 14.7905 33.4963 14.1179C34.7484 13.4418 36.3808 12.9776 38.2295 12.7414C41.9397 12.2673 46.1969 12.7512 49.2675 13.8916C52.3569 15.039 55.9304 17.3869 58.4557 20.0928C59.715 21.4422 60.6569 22.8205 61.17 24.117C61.6791 25.4035 61.7368 26.5242 61.381 27.4823C61.0271 28.4353 60.2436 29.2636 58.9986 29.9331C57.7478 30.6058 56.116 31.0677 54.2676 31.3024C50.5578 31.7732 46.3002 31.2892 43.2296 30.1488C40.1401 29.0014 36.5662 26.6534 34.0392 23.9501C32.7791 22.6021 31.8361 21.2259 31.3218 19.9328C30.8113 18.6493 30.7533 17.535 31.1057 16.586Z" fill="#D82C40" stroke="black" stroke-width="3"/>
<path d="M13.3497 73.4267L14.3024 73.4259L13.7604 72.6423L11.5794 69.4892L25.0639 78.9739C25.2745 79.1517 25.3729 79.3072 25.4077 79.4042C25.4172 79.4305 25.4211 79.4484 25.4225 79.4597C25.3436 79.5344 25.1589 79.5936 24.9168 79.4453C21.7087 77.4665 17.6283 75.5596 13.6249 74.9991C11.3757 74.6842 9.13218 74.7936 7.08375 75.565C7.35788 75.3425 7.63494 75.1369 7.91791 74.9484C9.39623 73.9633 11.0582 73.4287 13.3497 73.4267ZM25.4226 79.475C25.4223 79.4749 25.4223 79.4729 25.4233 79.4693C25.4233 79.4734 25.4228 79.4752 25.4226 79.475Z" fill="#D82C40" stroke="black"/>
<path d="M61.8127 73.3017L61.0981 73.3011L61.5046 72.7134L63.8332 69.347L63.8413 69.3352L63.8503 69.3241C63.9029 69.2593 63.9116 69.2062 63.9098 69.1684C63.9093 69.1586 63.9081 69.1492 63.9063 69.1403C63.833 69.1641 63.7373 69.2151 63.6477 69.2894L63.6362 69.2988L63.6241 69.3073L50.022 78.8748C49.7973 79.0635 49.6815 79.2376 49.6369 79.3619C49.5935 79.4826 49.6248 79.5192 49.6276 79.5225L49.6277 79.5226C49.7446 79.6637 50.0116 79.7352 50.3108 79.5519C53.5117 77.5775 57.5752 75.68 61.5547 75.1229C64.0585 74.7723 66.5465 74.9517 68.7608 75.9881C68.2866 75.5562 67.8094 75.1747 67.3136 74.8443C65.8131 73.8444 64.1266 73.3038 61.8127 73.3017Z" fill="#D82C40" stroke="black" stroke-width="0.75"/>
</svg>
