<svg width="44" height="24" viewBox="0 0 44 24" fill="none" xmlns="http://www.w3.org/2000/svg">
<path d="M26.9814 8.20412C25.3687 12.9722 27.0576 17.4281 31.218 18.8353C35.3596 20.236 39.4062 17.7191 41.0186 12.9518C42.631 8.18445 40.943 3.72798 36.8014 2.32722C32.641 0.920086 28.594 3.43606 26.9814 8.20412Z" fill="black"/>
<path d="M26.9814 8.20412C25.3687 12.9722 27.0576 17.4281 31.218 18.8353C35.3596 20.236 39.4062 17.7191 41.0186 12.9518C42.631 8.18445 40.943 3.72798 36.8014 2.32722C32.641 0.920086 28.594 3.43606 26.9814 8.20412Z" fill="#C2C2C2"/>
<path d="M26.9814 8.20412C25.3687 12.9722 27.0576 17.4281 31.218 18.8353C35.3596 20.236 39.4062 17.7191 41.0186 12.9518C42.631 8.18445 40.943 3.72798 36.8014 2.32722C32.641 0.920086 28.594 3.43606 26.9814 8.20412Z" stroke="black" stroke-width="0.75"/>
<path d="M31.8456 4.39659C31.9349 4.15609 32.1317 3.94772 32.4432 3.77956C32.7562 3.61055 33.1643 3.49449 33.6265 3.43544C34.5541 3.31692 35.6183 3.43789 36.386 3.72299C37.1583 4.00984 38.0517 4.5968 38.683 5.2733C38.9979 5.61063 39.2334 5.95522 39.3616 6.27934C39.4889 6.60095 39.5033 6.88115 39.4144 7.12066C39.3259 7.35891 39.13 7.566 38.8188 7.73337C38.5061 7.90154 38.0981 8.01703 37.636 8.07568C36.7086 8.1934 35.6442 8.0724 34.8765 7.7873C34.1042 7.50044 33.2107 6.91344 32.5789 6.23763C32.2639 5.90062 32.0281 5.55657 31.8996 5.23329C31.772 4.91242 31.7574 4.63383 31.8456 4.39659Z" fill="white" stroke="black" stroke-width="0.75"/>
<path d="M39.4017 18.6069L39.1635 18.6066L39.299 18.4107L39.8442 17.6225L36.4731 19.9937C36.4205 20.0381 36.3959 20.077 36.3872 20.1012C36.3848 20.1078 36.3838 20.1123 36.3835 20.1151C36.4032 20.1338 36.4494 20.1486 36.5099 20.1115C37.3119 19.6168 38.332 19.1401 39.3329 18.9999C39.8952 18.9212 40.456 18.9486 40.9682 19.1414C40.8996 19.0858 40.8304 19.0344 40.7596 18.9873C40.39 18.741 39.9745 18.6074 39.4017 18.6069ZM36.3834 20.1189C36.3835 20.1189 36.3835 20.1184 36.3833 20.1175L36.3834 20.1189Z" fill="#C2C2C2" stroke="black" stroke-width="0.25"/>
<path d="M14.9814 8.20412C13.3688 12.9722 15.0577 17.4281 19.2181 18.8353C23.3597 20.236 27.4063 17.7191 29.0187 12.9518C30.6311 8.18445 28.943 3.72798 24.8014 2.32722C20.641 0.920086 16.5941 3.43606 14.9814 8.20412Z" fill="black"/>
<path d="M14.9814 8.20412C13.3688 12.9722 15.0577 17.4281 19.2181 18.8353C23.3597 20.236 27.4063 17.7191 29.0187 12.9518C30.6311 8.18445 28.943 3.72798 24.8014 2.32722C20.641 0.920086 16.5941 3.43606 14.9814 8.20412Z" fill="#969696"/>
<path d="M14.9814 8.20412C13.3688 12.9722 15.0577 17.4281 19.2181 18.8353C23.3597 20.236 27.4063 17.7191 29.0187 12.9518C30.6311 8.18445 28.943 3.72798 24.8014 2.32722C20.641 0.920086 16.5941 3.43606 14.9814 8.20412Z" stroke="black" stroke-width="0.75"/>
<path d="M19.8456 4.39659C19.9349 4.15609 20.1318 3.94772 20.4433 3.77956C20.7563 3.61055 21.1644 3.49449 21.6265 3.43544C22.5541 3.31692 23.6184 3.43789 24.386 3.72299C25.1584 4.00984 26.0518 4.5968 26.6831 5.2733C26.9979 5.61063 27.2334 5.95522 27.3617 6.27934C27.489 6.60095 27.5034 6.88115 27.4144 7.12066C27.326 7.35891 27.1301 7.566 26.8188 7.73337C26.5061 7.90154 26.0982 8.01703 25.6361 8.07568C24.7086 8.1934 23.6442 8.0724 22.8766 7.7873C22.1042 7.50044 21.2107 6.91344 20.579 6.23763C20.2639 5.90062 20.0282 5.55657 19.8996 5.23329C19.772 4.91242 19.7575 4.63383 19.8456 4.39659Z" fill="white" stroke="black" stroke-width="0.75"/>
<path d="M27.4017 18.6069L27.1635 18.6066L27.299 18.4107L27.8443 17.6225L24.4732 19.9937C24.4205 20.0381 24.3959 20.077 24.3872 20.1012C24.3848 20.1078 24.3839 20.1123 24.3835 20.1151C24.4032 20.1338 24.4494 20.1486 24.5099 20.1115C25.312 19.6168 26.3321 19.1401 27.3329 18.9999C27.8952 18.9212 28.4561 18.9486 28.9682 19.1414C28.8997 19.0858 28.8304 19.0344 28.7597 18.9873C28.3901 18.741 27.9746 18.6074 27.4017 18.6069ZM24.3835 20.1189C24.3836 20.1189 24.3836 20.1184 24.3833 20.1175L24.3835 20.1189Z" fill="#969696" stroke="black" stroke-width="0.25"/>
<path d="M2.98149 8.20412C1.36884 12.9722 3.05775 17.4281 7.21817 18.8353C11.3598 20.236 15.4063 17.7191 17.0187 12.9518C18.6311 8.18445 16.9431 3.72798 12.8015 2.32722C8.64108 0.920086 4.59414 3.43606 2.98149 8.20412Z" fill="black"/>
<path d="M2.98149 8.20412C1.36884 12.9722 3.05775 17.4281 7.21817 18.8353C11.3598 20.236 15.4063 17.7191 17.0187 12.9518C18.6311 8.18445 16.9431 3.72798 12.8015 2.32722C8.64108 0.920086 4.59414 3.43606 2.98149 8.20412Z" fill="#636465"/>
<path d="M2.98149 8.20412C1.36884 12.9722 3.05775 17.4281 7.21817 18.8353C11.3598 20.236 15.4063 17.7191 17.0187 12.9518C18.6311 8.18445 16.9431 3.72798 12.8015 2.32722C8.64108 0.920086 4.59414 3.43606 2.98149 8.20412Z" stroke="black" stroke-width="0.75"/>
<path d="M7.84568 4.39659C7.93499 4.15609 8.13184 3.94772 8.44331 3.77956C8.75635 3.61055 9.16444 3.49449 9.62661 3.43544C10.5542 3.31692 11.6185 3.43789 12.3861 3.72299C13.1585 4.00984 14.0518 4.5968 14.6832 5.2733C14.998 5.61063 15.2335 5.95522 15.3617 6.27934C15.489 6.60095 15.5034 6.88115 15.4145 7.12066C15.326 7.35891 15.1301 7.566 14.8189 7.73337C14.5062 7.90154 14.0983 8.01703 13.6361 8.07568C12.7087 8.1934 11.6443 8.0724 10.8766 7.7873C10.1043 7.50044 9.21081 6.91344 8.57905 6.23763C8.26401 5.90062 8.02826 5.55657 7.89969 5.23329C7.77208 4.91242 7.75756 4.63383 7.84568 4.39659Z" fill="white" stroke="black" stroke-width="0.75"/>
<path d="M15.4017 18.6069L15.1635 18.6066L15.299 18.4107L15.8443 17.6225L12.4732 19.9937C12.4205 20.0381 12.3959 20.077 12.3872 20.1012C12.3848 20.1078 12.3839 20.1123 12.3835 20.1151C12.4032 20.1338 12.4494 20.1486 12.5099 20.1115C13.312 19.6168 14.3321 19.1401 15.3329 18.9999C15.8952 18.9212 16.4561 18.9486 16.9682 19.1414C16.8997 19.0858 16.8304 19.0344 16.7597 18.9873C16.3901 18.741 15.9746 18.6074 15.4017 18.6069ZM12.3835 20.1189C12.3836 20.1189 12.3836 20.1184 12.3833 20.1175L12.3835 20.1189Z" fill="#636465" stroke="black" stroke-width="0.25"/>
</svg>
